<?xml version="1.0" encoding="utf-8"?>
<!-- Generator: Adobe Illustrator 15.1.0, SVG Export Plug-In . SVG Version: 6.00 Build 0)  -->
<!DOCTYPE svg PUBLIC "-//W3C//DTD SVG 1.1//EN" "http://www.w3.org/Graphics/SVG/1.1/DTD/svg11.dtd">
<svg version="1.1" id="_x2014_ÎÓÈ_x5F_1" xmlns="http://www.w3.org/2000/svg" xmlns:xlink="http://www.w3.org/1999/xlink"
	 x="0px" y="0px" width="500px" height="500px" viewBox="0 0 500 500" enable-background="new 0 0 500 500" xml:space="preserve">
<g>
	<g opacity="0.22">
		
			<linearGradient id="SVGID_1_" gradientUnits="userSpaceOnUse" x1="207.7002" y1="120.7754" x2="425.8415" y2="393.2116" gradientTransform="matrix(0.9979 0.0643 -0.0643 0.9979 16.6073 -16.3209)">
			<stop  offset="0.0146" style="stop-color:#F1F1F2"/>
			<stop  offset="0.6488" style="stop-color:#151515"/>
			<stop  offset="1" style="stop-color:#090909"/>
		</linearGradient>
		<path fill="url(#SVGID_1_)" stroke="#B1BDC8" stroke-miterlimit="10" d="M369.856,426.287l-128.118-8.25
			c-19.915-1.283-35.074-18.529-33.792-38.444l5.686-88.301l42.332,2.726l-2.635,40.927l115.689,7.45l11.803-183.291l-115.689-7.449
			l-1.395,21.643l-42.333-2.702l2.71-42.098c1.283-19.915,18.529-35.073,38.443-33.791l128.119,8.25
			c19.914,1.282,35.073,18.528,33.791,38.443l-16.17,251.095C407.018,412.409,389.771,427.569,369.856,426.287z M330.649,399.713
			l40.749,2.624c6.709,0.432,12.519-4.676,12.951-11.385l1.674-26.013c-2.336,1.483-5.146,2.268-8.114,2.077l-44.714-2.88
			c3.371,5.156,5.166,11.401,4.74,18.008C337.501,388.901,334.812,394.985,330.649,399.713z M233.573,355.122l-1.675,26.013
			c-0.432,6.709,4.674,12.52,11.383,12.951l40.751,2.625c-3.522-5.223-5.408-11.602-4.973-18.358
			c0.425-6.606,3.004-12.569,7.01-17.25l-44.715-2.88C238.386,358.032,235.7,356.893,233.573,355.122z M308.85,374.76
			c-3.025-0.195-5.646,2.108-5.842,5.136c-0.194,3.026,2.109,5.646,5.135,5.842c3.027,0.194,5.648-2.108,5.844-5.136
			C314.181,377.574,311.877,374.954,308.85,374.76z M261.017,118.656c-6.388-0.411-11.958,4.196-12.851,10.429
			c2.329-1.468,5.125-2.243,8.076-2.053l33.414,2.151c-0.149-1.199-0.19-2.431-0.109-3.68c0.11-1.725,0.443-3.382,0.97-4.948
			L261.017,118.656z M359.103,133.656l33.694,2.169c2.952,0.19,5.623,1.317,7.746,3.071c-0.087-6.294-5.021-11.579-11.408-11.99
			l-29.778-1.918c0.32,1.621,0.437,3.308,0.326,5.032C359.602,131.27,359.404,132.485,359.103,133.656z"/>
		
			<linearGradient id="SVGID_2_" gradientUnits="userSpaceOnUse" x1="107.7769" y1="221.8496" x2="331.7705" y2="221.8496" gradientTransform="matrix(0.9979 0.0643 -0.0643 0.9979 16.6073 -16.3209)">
			<stop  offset="0.0146" style="stop-color:#F1F1F2"/>
			<stop  offset="0.6488" style="stop-color:#151515"/>
			<stop  offset="1" style="stop-color:#090909"/>
		</linearGradient>
		<path fill="url(#SVGID_2_)" stroke="#B1BDC8" stroke-miterlimit="10" d="M295.962,300.602l-127.842-8.232
			c-8.265-0.532-14.842-6.901-15.641-15.145l-0.407-4.214h-0.012l-1.172-11.26l-8.344-87.347l-20.134-6.019l-1.606-1.135
			c-7.553-5.339-9.366-15.835-4.041-23.396c3.41-4.823,8.945-7.466,14.82-7.088c2.367,0.152,4.666,0.804,6.75,1.903l28.296,9.949
			l1.358,0.956c2.514,1.77,4.461,4.167,5.681,6.913l0.874,0.057l0.714,7.097l144.778,9.239c4.975,0.32,9.516,2.805,12.465,6.816
			c2.948,4.01,3.965,9.082,2.79,13.916l-14.286,58.764c-1.736,7.153-8.088,12.423-15.444,12.808l-20.333,1.06l12.895,0.83
			c9.242,0.596,16.277,8.599,15.682,17.842C313.207,294.16,305.204,301.196,295.962,300.602z"/>
		
			<linearGradient id="SVGID_3_" gradientUnits="userSpaceOnUse" x1="164.9644" y1="304.668" x2="212.8325" y2="304.668" gradientTransform="matrix(0.9979 0.0643 -0.0643 0.9979 16.6073 -16.3209)">
			<stop  offset="0.0146" style="stop-color:#F1F1F2"/>
			<stop  offset="0.6488" style="stop-color:#151515"/>
			<stop  offset="1" style="stop-color:#090909"/>
		</linearGradient>
		<path fill="url(#SVGID_3_)" stroke="#B1BDC8" stroke-miterlimit="10" d="M183.999,323.74
			c-13.17-0.848-23.195-12.252-22.347-25.422c0.848-13.17,12.253-23.195,25.423-22.348c13.17,0.848,23.194,12.254,22.346,25.424
			C208.573,314.564,197.169,324.588,183.999,323.74z"/>
		
			<linearGradient id="SVGID_4_" gradientUnits="userSpaceOnUse" x1="259.4863" y1="304.668" x2="307.3545" y2="304.668" gradientTransform="matrix(0.9979 0.0643 -0.0643 0.9979 16.6073 -16.3209)">
			<stop  offset="0.0146" style="stop-color:#F1F1F2"/>
			<stop  offset="0.6488" style="stop-color:#151515"/>
			<stop  offset="1" style="stop-color:#090909"/>
		</linearGradient>
		<path fill="url(#SVGID_4_)" stroke="#B1BDC8" stroke-miterlimit="10" d="M278.325,329.814
			c-13.17-0.848-23.195-12.252-22.347-25.422c0.848-13.17,12.253-23.195,25.423-22.348s23.194,12.254,22.347,25.424
			S291.495,330.662,278.325,329.814z"/>
	</g>
	<rect x="240.439" y="137.207" fill="#FFFFFF" width="128.78" height="198.644"/>
	<g>
		<path fill="none" stroke="#FFFFFF" stroke-width="24" stroke-miterlimit="10" d="M368.5,100H240.116
			c-13.306,0-24.192,10.886-24.192,24.192v30.178l18.419-0.01V134.21c0-0.85,0.695-1.545,1.545-1.545h136.839
			c0.85,0,1.545,0.695,1.545,1.545v204.58c0,0.85-0.695,1.545-1.545,1.545H235.889c-0.85,0-1.545-0.695-1.545-1.545v-39.467h-18.419
			v76.484c0,13.306,10.886,24.192,24.192,24.192H368.5c13.306,0,24.191-10.887,24.191-24.192V124.192
			C392.691,110.886,381.806,100,368.5,100z M319.809,124.5h-31.282c-4.125,0-7.5-3.375-7.5-7.5s3.375-7.5,7.5-7.5h31.282
			c4.125,0,7.5,3.375,7.5,7.5S323.934,124.5,319.809,124.5z M304.309,387.5c-9.666,0-17.5-7.835-17.5-17.5s7.834-17.5,17.5-17.5
			c9.664,0,17.5,7.835,17.5,17.5S313.973,387.5,304.309,387.5z"/>
		<path fill="none" stroke="#FFFFFF" stroke-width="24" stroke-miterlimit="10" d="M291.478,274.523c0-2.65-2.146-4.797-4.797-4.797
			H166.738c-2.353,0-4.356-1.707-4.733-4.03l-0.31-1.903c-0.437-2.696,1.466-5.213,4.18-5.533l126.713-14.816
			c2.106-0.247,3.8-1.847,4.166-3.934l10.48-59.56c0.517-2.937-1.747-5.63-4.73-5.63l-151.196,0.086c-2.357,0-4.367-1.71-4.74-4.037
			l-0.483-3.003h-0.054l-0.796-4.97c-0.224-1.38-1.037-2.597-2.23-3.327l-28.39-7.974c-2.26-1.383-5.213-0.673-6.6,1.583
			c-1.383,2.26-0.673,5.213,1.583,6.6l24.63,5.667c1.193,0.73,2.01,1.947,2.23,3.327l0.01,0.053h0.053l0.977,6.087h-0.007
			l13.767,85.556l0.097-0.01l2.483,15.333c0.377,2.323,2.383,4.03,4.737,4.03h128.106
			C289.331,279.323,291.478,277.173,291.478,274.523z M209.785,243.467l-25.97,3.037l-1.5-17.28l27.47-2.224V243.467z
			 M209.785,223.79l-27.747,2.247l-1.903-21.96l29.65-0.747V223.79z M288.544,230.81c-0.369,2.086-2.062,3.687-4.17,3.933
			l-18.963,2.217l1.736-14.606l23.214-1.88L288.544,230.81z M271.718,183.934l19.356-0.01c2.983,0,5.243,2.69,4.727,5.63
			L294.314,198l-24.344,0.613L271.718,183.934z M293.751,201.213l-2.816,16.003l-23.4,1.896l2.057-17.293L293.751,201.213z
			 M243.991,183.95l24.503-0.013l-1.753,14.756l-23.474,0.593L243.991,183.95z M243.118,202.49l23.24-0.587l-2.076,17.474
			l-22.047,1.783L243.118,202.49z M242.084,224.383l21.813-1.767l-1.753,14.727l-20.787,2.43L242.084,224.383z M212.981,183.967
			l27.806-0.017l-0.727,15.417l-27.08,0.684V183.967z M212.981,203.25l26.93-0.68l-0.89,18.853l-26.04,2.106V203.25z
			 M212.981,226.74l25.89-2.097l-0.733,15.506l-25.156,2.94V226.74z M209.785,183.97v16.16l-29.93,0.753l-1.463-16.896
			L209.785,183.97z M149.668,189.567c-0.473-2.92,1.78-5.567,4.733-5.567l20.78-0.013l1.47,16.977l-25.033,0.633L149.668,189.567z
			 M152.135,204.783l24.793-0.626l1.919,22.137l-22.926,1.856L152.135,204.783z M158.622,244.83l-2.187-13.51l22.69-1.84
			l1.51,17.394l-16.72,1.957C161.368,249.126,159.035,247.367,158.622,244.83z"/>
		<circle fill="none" stroke="#FFFFFF" stroke-width="24" stroke-miterlimit="10" cx="176.437" cy="297.675" r="11.934"/>
		<circle fill="none" stroke="#FFFFFF" stroke-width="24" stroke-miterlimit="10" cx="270.958" cy="297.676" r="11.935"/>
	</g>
	<g>
		<g>
			<g>
				<g>
					<linearGradient id="SVGID_5_" gradientUnits="userSpaceOnUse" x1="215.9243" y1="250" x2="392.6914" y2="250">
						<stop  offset="0" style="stop-color:#F6921E"/>
						<stop  offset="1" style="stop-color:#EE4036"/>
					</linearGradient>
					<path fill="url(#SVGID_5_)" d="M368.5,100H240.116c-13.306,0-24.192,10.886-24.192,24.192v30.178l18.419-0.01V134.21
						c0-0.85,0.695-1.545,1.545-1.545h136.839c0.85,0,1.545,0.695,1.545,1.545v204.58c0,0.85-0.695,1.545-1.545,1.545H235.889
						c-0.85,0-1.545-0.695-1.545-1.545v-39.467h-18.419v76.484c0,13.306,10.886,24.192,24.192,24.192H368.5
						c13.306,0,24.191-10.887,24.191-24.192V124.192C392.691,110.886,381.806,100,368.5,100z M319.809,124.5h-31.282
						c-4.125,0-7.5-3.375-7.5-7.5s3.375-7.5,7.5-7.5h31.282c4.125,0,7.5,3.375,7.5,7.5S323.934,124.5,319.809,124.5z M304.309,387.5
						c-9.666,0-17.5-7.835-17.5-17.5s7.834-17.5,17.5-17.5c9.664,0,17.5,7.835,17.5,17.5S313.973,387.5,304.309,387.5z"/>
				</g>
			</g>
			<linearGradient id="SVGID_6_" gradientUnits="userSpaceOnUse" x1="107.3081" y1="214.8564" x2="307.3086" y2="214.8564">
				<stop  offset="0" style="stop-color:#F6921E"/>
				<stop  offset="1" style="stop-color:#EE4036"/>
			</linearGradient>
			<path fill="url(#SVGID_6_)" d="M291.478,274.523c0-2.65-2.146-4.797-4.797-4.797H166.738c-2.353,0-4.356-1.707-4.733-4.03
				l-0.31-1.903c-0.437-2.696,1.466-5.213,4.18-5.533l126.713-14.816c2.106-0.247,3.8-1.847,4.166-3.934l10.48-59.56
				c0.517-2.937-1.747-5.63-4.73-5.63l-151.196,0.086c-2.357,0-4.367-1.71-4.74-4.037l-0.483-3.003h-0.054l-0.796-4.97
				c-0.224-1.38-1.037-2.597-2.23-3.327l-28.39-7.974c-2.26-1.383-5.213-0.673-6.6,1.583c-1.383,2.26-0.673,5.213,1.583,6.6
				l24.63,5.667c1.193,0.73,2.01,1.947,2.23,3.327l0.01,0.053h0.053l0.977,6.087h-0.007l13.767,85.556l0.097-0.01l2.483,15.333
				c0.377,2.323,2.383,4.03,4.737,4.03h128.106C289.331,279.323,291.478,277.173,291.478,274.523z M209.785,243.467l-25.97,3.037
				l-1.5-17.28l27.47-2.224V243.467z M209.785,223.79l-27.747,2.247l-1.903-21.96l29.65-0.747V223.79z M288.544,230.81
				c-0.369,2.086-2.062,3.687-4.17,3.933l-18.963,2.217l1.736-14.606l23.214-1.88L288.544,230.81z M271.718,183.934l19.356-0.01
				c2.983,0,5.243,2.69,4.727,5.63L294.314,198l-24.344,0.613L271.718,183.934z M293.751,201.213l-2.816,16.003l-23.4,1.896
				l2.057-17.293L293.751,201.213z M243.991,183.95l24.503-0.013l-1.753,14.756l-23.474,0.593L243.991,183.95z M243.118,202.49
				l23.24-0.587l-2.076,17.474l-22.047,1.783L243.118,202.49z M242.084,224.383l21.813-1.767l-1.753,14.727l-20.787,2.43
				L242.084,224.383z M212.981,183.967l27.806-0.017l-0.727,15.417l-27.08,0.684V183.967z M212.981,203.25l26.93-0.68l-0.89,18.853
				l-26.04,2.106V203.25z M212.981,226.74l25.89-2.097l-0.733,15.506l-25.156,2.94V226.74z M209.785,183.97v16.16l-29.93,0.753
				l-1.463-16.896L209.785,183.97z M149.668,189.567c-0.473-2.92,1.78-5.567,4.733-5.567l20.78-0.013l1.47,16.977l-25.033,0.633
				L149.668,189.567z M152.135,204.783l24.793-0.626l1.919,22.137l-22.926,1.856L152.135,204.783z M158.622,244.83l-2.187-13.51
				l22.69-1.84l1.51,17.394l-16.72,1.957C161.368,249.126,159.035,247.367,158.622,244.83z"/>
			<linearGradient id="SVGID_7_" gradientUnits="userSpaceOnUse" x1="164.502" y1="297.6758" x2="188.3706" y2="297.6758">
				<stop  offset="0" style="stop-color:#F6921E"/>
				<stop  offset="1" style="stop-color:#EE4036"/>
			</linearGradient>
			<circle fill="url(#SVGID_7_)" cx="176.437" cy="297.675" r="11.934"/>
			<linearGradient id="SVGID_8_" gradientUnits="userSpaceOnUse" x1="259.0234" y1="297.6758" x2="282.8926" y2="297.6758">
				<stop  offset="0" style="stop-color:#F6921E"/>
				<stop  offset="1" style="stop-color:#EE4036"/>
			</linearGradient>
			<circle fill="url(#SVGID_8_)" cx="270.958" cy="297.676" r="11.935"/>
		</g>
	</g>
	<circle fill="#FFFFFF" cx="304.568" cy="369.74" r="10.167"/>
</g>
</svg>
